<svg xmlns="http://www.w3.org/2000/svg" width="100mm" height="70mm" viewBox="0 0 1000 700" role="img" aria-label="DADA Henna Hair Color Natural Brown label">
  <defs>
    <style>
      .sans { font-family: "Malgun Gothic", "Noto Sans KR", "Arial", sans-serif; }
      .serif { font-family: "Georgia", "Times New Roman", serif; }
      .brand { font-family: "Arial Black", "Impact", "Arial", sans-serif; font-weight: 900; letter-spacing: -18px; }
      .mono { font-family: "Consolas", "Courier New", monospace; letter-spacing: 3px; }
    </style>
  </defs>
  <rect width="1000" height="700" rx="34" fill="#F6F0E7"/>
  <rect x="32" y="32" width="936" height="636" rx="28" fill="none" stroke="#7A5134" stroke-width="5"/>
  <rect x="47" y="47" width="906" height="606" rx="22" fill="none" stroke="#D7C7B2" stroke-width="2"/>

  <g transform="translate(86 96)">
    <text class="mono" x="0" y="0" fill="#7A5134" font-size="28">NATURAL COLOR CARE</text>
    <text class="brand" x="-8" y="172" fill="#8A4F2A" font-size="150">DADA</text>
    <text class="mono" x="6" y="244" fill="#2B241F" font-size="31">HENNA HAIR COLOR</text>
    <line x1="0" y1="282" x2="510" y2="282" stroke="#8A4F2A" stroke-width="5"/>
    <text class="serif" x="0" y="356" fill="#2B241F" font-size="70">Natural Brown</text>
    <text class="sans" x="3" y="412" fill="#49382D" font-size="36">헤나 염색약</text>
    <text class="sans" x="3" y="462" fill="#6E513A" font-size="29">자연스러운 새치 커버</text>
    <text class="mono" x="3" y="548" fill="#2B241F" font-size="31">NET WT. 100g</text>
  </g>

  <g transform="translate(742 136)" fill="none" stroke="#8A4F2A" stroke-width="4" stroke-linecap="round" stroke-linejoin="round" opacity="0.72">
    <path d="M70 320 C36 260 26 205 42 156 C59 105 96 70 148 48"/>
    <path d="M78 320 C126 263 155 211 164 164 C173 116 160 77 148 48"/>
    <path d="M62 192 C96 188 127 171 153 139"/>
    <path d="M47 235 C86 236 125 219 156 184"/>
    <path d="M76 143 C105 135 129 118 145 91"/>
    <path d="M105 318 C146 293 179 258 203 214"/>
    <path d="M128 276 C160 272 186 252 204 219"/>
  </g>

  <g transform="translate(690 508)">
    <rect x="0" y="0" width="220" height="72" rx="36" fill="#2B241F"/>
    <text class="sans" x="110" y="47" text-anchor="middle" fill="#F6F0E7" font-size="28" font-weight="700">DADA BEAUTY</text>
  </g>
</svg>
